<?xml version="1.0" encoding="UTF-8" standalone="no"?>
<svg
   xmlns:dc="http://purl.org/dc/elements/1.1/"
   xmlns:cc="http://creativecommons.org/ns#"
   xmlns:rdf="http://www.w3.org/1999/02/22-rdf-syntax-ns#"
   xmlns:svg="http://www.w3.org/2000/svg"
   xmlns="http://www.w3.org/2000/svg"
   xmlns:sodipodi="http://sodipodi.sourceforge.net/DTD/sodipodi-0.dtd"
   xmlns:inkscape="http://www.inkscape.org/namespaces/inkscape"
   version="1.1"
   id="svg2"
   xml:space="preserve"
   width="1000"
   height="668.30664"
   viewBox="0 0 1000 668.30664"
   sodipodi:docname="4884783.eps"><metadata
     id="metadata8"><rdf:RDF><cc:Work
         rdf:about=""><dc:format>image/svg+xml</dc:format><dc:type
           rdf:resource="http://purl.org/dc/dcmitype/StillImage" /></cc:Work></rdf:RDF></metadata><defs
     id="defs6" /><sodipodi:namedview
     pagecolor="#ffffff"
     bordercolor="#666666"
     borderopacity="1"
     objecttolerance="10"
     gridtolerance="10"
     guidetolerance="10"
     inkscape:pageopacity="0"
     inkscape:pageshadow="2"
     inkscape:window-width="640"
     inkscape:window-height="480"
     id="namedview4" /><g
     id="g10"
     inkscape:groupmode="layer"
     inkscape:label="ink_ext_XXXXXX"
     transform="matrix(1.3333333,0,0,-1.3333333,0,668.30667)"><g
       id="g12"
       transform="scale(0.1)"><path
         d="m 0,12.2695 h 7500 v 5000 H 0 Z"
         style="fill:#1f2238;fill-opacity:1;fill-rule:nonzero;stroke:none"
         id="path14" /><g
         id="g16"
         transform="scale(10)"><text
           transform="matrix(1,0,0,-1,312.225,185.359)"
           style="font-variant:normal;font-weight:900;font-size:25.4399px;font-family:Montserrat;-inkscape-font-specification:Montserrat-Black;writing-mode:lr-tb;fill:#262a41;fill-opacity:1;fill-rule:nonzero;stroke:none"
           id="text20"><tspan
             x="0 15.772738 26.966293"
             y="0"
             sodipodi:role="line"
             id="tspan18">&lt;/&gt;</tspan></text></g><path
         d="m 4660.59,2794.38 c -14.93,-326.65 -336.02,-576.94 -576.54,-592.06 -317.77,-19.97 -544.88,266.61 -576.52,592.06 -27.41,281.95 72.71,277.75 147.29,395.27 90.36,142.4 258.75,221.08 429.23,221.08 318.41,0 596.6,-176.87 576.54,-616.35"
         style="fill:#d82b62;fill-opacity:1;fill-rule:nonzero;stroke:none"
         id="path22" /><path
         d="m 4307.49,2232.82 v -559.44 h -446.86 v 559.44 h 446.86"
         style="fill:#f3a29c;fill-opacity:1;fill-rule:nonzero;stroke:none"
         id="path24" /><path
         d="m 4586.01,2559.12 c 79.7,120.96 181.12,126.27 223.47,-16.79 42.35,-143.07 -97.43,-260.78 -211.23,-217.34 -113.81,43.44 -12.24,234.13 -12.24,234.13"
         style="fill:#f3a29c;fill-opacity:1;fill-rule:nonzero;stroke:none"
         id="path26" /><path
         d="m 4680.1,2555.96 c 53.39,9.77 80.75,-149.31 -36.34,-154.56 l 24.08,55.51 -22.6,46.17 34.86,52.88"
         style="fill:#ef7691;fill-opacity:1;fill-rule:nonzero;stroke:none"
         id="path28" /><path
         d="m 4628.07,2377.87 c 28.27,30.11 36.88,56.89 36.86,78.01 -0.03,30.51 -17.68,48.71 -17.89,48.94 l -1.8,-1.74 2.25,-1.1 c 0.01,0.02 2.09,4.29 5.69,10.77 5.4,9.71 14.19,24.3 24.19,36.34 9.96,12.11 21.3,21.29 30.48,21.13 4.67,-0.03 9.12,-2.04 13.65,-7.7 4.49,-5.66 8.77,-14.99 12.32,-28.93 l 4.84,1.23 c -3.66,14.35 -8.09,24.27 -13.24,30.8 -5.12,6.53 -11.27,9.63 -17.57,9.6 -8.22,-0.04 -16.11,-4.83 -23.55,-11.53 -22.21,-20.17 -41.21,-59.39 -41.3,-59.51 l -0.77,-1.58 1.22,-1.26 0.64,-0.72 c 3.09,-3.54 15.86,-19.82 15.84,-44.74 -0.01,-19.74 -7.9,-45.14 -35.5,-74.59 l 3.64,-3.42"
         style="fill:#de677e;fill-opacity:1;fill-rule:nonzero;stroke:none"
         id="path30" /><path
         d="m 3578.38,2559.12 c -79.72,120.96 -181.13,126.27 -223.48,-16.79 -42.35,-143.07 97.42,-260.78 211.23,-217.34 113.8,43.44 12.25,234.13 12.25,234.13"
         style="fill:#f3a29c;fill-opacity:1;fill-rule:nonzero;stroke:none"
         id="path32" /><path
         d="m 3484.28,2555.96 c -53.39,9.77 -80.75,-149.31 36.34,-154.56 l -24.08,55.51 22.6,46.17 -34.86,52.88"
         style="fill:#ef7691;fill-opacity:1;fill-rule:nonzero;stroke:none"
         id="path34" /><path
         d="m 3539.96,2381.3 c -27.61,29.44 -35.5,54.84 -35.51,74.58 0,14.26 4.15,25.65 8.3,33.49 2.08,3.92 4.15,6.94 5.69,8.97 0.77,1.01 1.41,1.78 1.85,2.28 l 0.64,0.72 1.22,1.26 -0.77,1.58 c -0.03,0.06 -8.55,17.55 -20.75,35.14 -6.1,8.81 -13.12,17.64 -20.55,24.37 -7.44,6.7 -15.34,11.49 -23.55,11.53 -6.3,0.03 -12.45,-3.07 -17.57,-9.6 -5.16,-6.53 -9.58,-16.45 -13.25,-30.8 l 4.85,-1.23 c 3.55,13.94 7.83,23.27 12.32,28.93 4.53,5.66 8.97,7.67 13.65,7.7 6.11,0.04 13.2,-3.88 20.19,-10.23 10.5,-9.49 20.62,-24.04 28.03,-36.18 3.71,-6.07 6.75,-11.54 8.86,-15.48 2.11,-3.95 3.27,-6.34 3.28,-6.35 l 2.25,1.1 -1.8,1.74 c -0.21,-0.23 -17.86,-18.42 -17.89,-48.94 -0.02,-21.12 8.59,-47.9 36.86,-78.01 l 3.65,3.42"
         style="fill:#de677e;fill-opacity:1;fill-rule:nonzero;stroke:none"
         id="path36" /><path
         d="m 4307.49,2220.44 v -208.11 c -160.59,-217.6 -446.86,-146.85 -446.86,-146.85 l 5,354.96 h 441.86"
         style="fill:#de677e;fill-opacity:1;fill-rule:nonzero;stroke:none"
         id="path38" /><path
         d="m 4084.05,1981.99 v 0 c -266.76,0 -483,216.24 -483,482.99 v 352.96 c 0,180.17 146.05,326.23 326.23,326.23 h 313.54 c 180.18,0 326.23,-146.06 326.23,-326.23 v -352.96 c 0,-266.75 -216.24,-482.99 -483,-482.99"
         style="fill:#f3a29c;fill-opacity:1;fill-rule:nonzero;stroke:none"
         id="path40" /><path
         d="m 4153.37,2401.84 c 0,-19.16 -7.75,-36.45 -20.3,-49.01 -12.56,-12.55 -29.86,-20.29 -49.02,-20.3 -19.15,0.01 -36.45,7.75 -49,20.3 -12.55,12.56 -20.3,29.85 -20.3,49.01 h -10 c 0,-43.81 35.5,-79.3 79.3,-79.31 43.81,0.01 79.32,35.5 79.32,79.31 h -10"
         style="fill:#d82b62;fill-opacity:1;fill-rule:nonzero;stroke:none"
         id="path42" /><path
         d="m 3652.08,3122.57 c 0,0 -84.6,140.23 21.36,263.87 0,0 76.13,-140.96 -21.36,-263.87"
         style="fill:#d82b62;fill-opacity:1;fill-rule:nonzero;stroke:none"
         id="path44" /><path
         d="m 3695.05,3155.87 c 0,0 -117.8,-113.77 -261.98,-38.08 0,0 120.42,105.67 261.98,38.08"
         style="fill:#d82b62;fill-opacity:1;fill-rule:nonzero;stroke:none"
         id="path46" /><path
         d="m 3892.25,2575.21 c 0,-39.94 -17.02,-72.31 -37.99,-72.31 -20.99,0 -38,32.37 -38,72.31 0,39.94 17.01,72.31 38,72.31 20.97,0 37.99,-32.37 37.99,-72.31"
         style="fill:#2a2e4b;fill-opacity:1;fill-rule:nonzero;stroke:none"
         id="path48" /><path
         d="m 4028.84,2580.59 h -20 c -0.01,-48.18 -19.47,-91.61 -51.03,-123.21 -31.59,-31.56 -75.02,-51.02 -123.2,-51.03 -48.18,0.01 -91.61,19.47 -123.2,51.03 -31.56,31.6 -51.02,75.03 -51.03,123.21 0.01,48.17 19.47,91.6 51.03,123.2 31.59,31.56 75.02,51.02 123.2,51.03 48.18,-0.01 91.61,-19.47 123.2,-51.03 31.56,-31.6 51.02,-75.03 51.03,-123.2 h 20 20 c -0.01,118.32 -95.9,214.22 -214.23,214.23 -118.33,-0.01 -214.22,-95.91 -214.23,-214.23 0.01,-118.33 95.9,-214.22 214.23,-214.24 118.33,0.01 214.22,95.91 214.23,214.24 h -20"
         style="fill:#ffffff;fill-opacity:1;fill-rule:nonzero;stroke:none"
         id="path50" /><path
         d="m 4351.85,2575.21 c 0,-39.94 -17.02,-72.31 -38,-72.31 -20.99,0 -37.99,32.37 -37.99,72.31 0,39.94 17,72.31 37.99,72.31 20.98,0 38,-32.37 38,-72.31"
         style="fill:#2a2e4b;fill-opacity:1;fill-rule:nonzero;stroke:none"
         id="path52" /><path
         d="m 4527.72,2580.59 h -20 c -0.01,-48.18 -19.47,-91.61 -51.03,-123.21 -31.59,-31.56 -75.03,-51.02 -123.2,-51.03 -48.18,0.01 -91.61,19.47 -123.2,51.03 -31.56,31.6 -51.02,75.03 -51.03,123.21 0.01,48.17 19.47,91.6 51.03,123.2 31.59,31.56 75.02,51.02 123.2,51.03 48.17,-0.01 91.61,-19.47 123.2,-51.03 31.56,-31.6 51.02,-75.03 51.03,-123.2 h 20 20 c -0.01,118.32 -95.91,214.22 -214.23,214.23 -118.32,-0.01 -214.22,-95.91 -214.23,-214.23 0.01,-118.33 95.91,-214.22 214.23,-214.24 118.32,0.02 214.22,95.91 214.23,214.24 h -20"
         style="fill:#ffffff;fill-opacity:1;fill-rule:nonzero;stroke:none"
         id="path54" /><path
         d="m 3660.91,3006.32 c 0,0 306.85,161.76 510.74,44.52 203.9,-117.24 226.84,-359.36 428.17,-296.7 0,0 152.92,67.32 -15.29,301.8 -168.2,234.47 -283.29,280.35 -502.27,229.38 -219,-50.97 -361.48,-90.61 -421.35,-279"
         style="fill:#d82b62;fill-opacity:1;fill-rule:nonzero;stroke:none"
         id="path56" /><path
         d="m 3649.18,3008.65 c 0,0 101.29,134.3 243.07,169.81 141.77,35.49 298.6,-138.9 298.6,-138.9 0,0 -363.26,51.79 -541.67,-30.91"
         style="fill:#af2153;fill-opacity:1;fill-rule:nonzero;stroke:none"
         id="path58" /><path
         d="m 3601.79,2839.72 c 0,0 34.17,-249.25 0,-401.37 0,0 -49.94,386.5 0,401.37"
         style="fill:#d82b62;fill-opacity:1;fill-rule:nonzero;stroke:none"
         id="path60" /><path
         d="m 4563.54,2839.72 c 0,0 -34.16,-249.25 0,-401.37 0,0 49.95,386.5 0,401.37"
         style="fill:#d82b62;fill-opacity:1;fill-rule:nonzero;stroke:none"
         id="path62" /><path
         d="m 3940.84,2859.17 c -52.71,25.23 -146.45,52.92 -233.29,-8.94 -14.57,-10.37 -9.03,-33.28 8.59,-36.32 27.86,-4.8 67.83,-9.77 113.08,-9.49 35.17,0.23 76.8,8.88 107.88,16.88 18.27,4.7 20.76,29.73 3.74,37.87"
         style="fill:#d82b62;fill-opacity:1;fill-rule:nonzero;stroke:none"
         id="path64" /><path
         d="m 4449.79,2859.17 c -52.7,25.23 -146.44,52.92 -233.29,-8.94 -14.56,-10.37 -9.02,-33.28 8.6,-36.32 27.86,-4.8 67.84,-9.77 113.08,-9.49 35.17,0.23 76.79,8.88 107.87,16.88 18.28,4.7 20.77,29.73 3.74,37.87"
         style="fill:#d82b62;fill-opacity:1;fill-rule:nonzero;stroke:none"
         id="path66" /><path
         d="m 4247.43,2227.39 c -5.01,-8.94 -10.93,-18.29 -19.03,-27.6 -25.82,-31.08 -69.67,-60.94 -144.78,-62.31 l -0.11,-0.34 -5.52,0.11 -0.21,0.45 c -70.43,1.39 -113.82,27.89 -140,57.14 -10.13,10.98 -17.83,22.6 -23.36,33.05 -12.51,24.02 -15.77,42.91 -15.77,42.91 l 364.71,-0.69 c 0,0 -3.01,-18.88 -15.93,-42.72"
         style="fill:#e72b61;fill-opacity:1;fill-rule:nonzero;stroke:none"
         id="path68" /><path
         d="m 4247.43,2227.39 c -5.01,-8.94 -10.93,-18.29 -19.03,-27.6 -83.71,36.78 -184.41,44.48 -290.62,-4.95 -10.13,10.98 -17.83,22.6 -23.36,33.05 -12.51,24.02 -15.77,42.91 -15.77,42.91 l 364.71,-0.69 c 0,0 -3.01,-18.88 -15.93,-42.72"
         style="fill:#2a2e4b;fill-opacity:1;fill-rule:nonzero;stroke:none"
         id="path70" /><path
         d="m 5634.31,283.801 -3269.6,-3.391 c 0,0 61,127.59 148.8,296.692 6.5,12.5 13.19,25.308 20,38.308 119.9,228.699 281.2,517.59 407.1,674.29 145,180.4 487.6,309.01 720.3,379.31 135.59,40.9 233.8,61.99 233.8,61.99 h 375.59 c 0,0 88.2,-18.9 212.8,-55.79 232.5,-68.7 580.1,-209.71 741.3,-385.51 35.4,-38.59 68.7,-85.29 99.91,-137.1 198.39,-329.69 310,-868.799 310,-868.799"
         style="fill:#f78f45;fill-opacity:1;fill-rule:nonzero;stroke:none"
         id="path72" /><path
         d="m 2364.71,280.41 c 0,0 0.4,0.84 1.19,2.488 h 809.52 v -1.648 l -810.71,-0.84 m 840.71,0.871 v 1.617 H 4259.9 c 2.17,0 4.34,0.063 6.46,0.231 0.63,0.043 1.26,0.101 1.88,0.16 57.25,5.223 51.22,91.731 -6.21,91.731 h -622.14 c 0,0.031 -0.02,0.089 -0.05,0.191 -0.08,0.258 -0.24,0.809 -0.48,1.609 l -17.75,50.11 c 922.09,37.121 1433.81,511.308 1579.53,669.32 31.68,34.36 75.67,55.04 122.38,56.33 l 0.79,0.02 c 198.39,-329.69 310,-868.799 310,-868.799 l -2428.89,-2.52"
         style="fill:#f57c2f;fill-opacity:1;fill-rule:nonzero;stroke:none"
         id="path74" /><path
         d="m 4032.75,2527.56 h 102.59 v 40 h -102.59 z"
         style="fill:#ffffff;fill-opacity:1;fill-rule:nonzero;stroke:none"
         id="path76" /><path
         d="m 4483.11,1675.25 c -404.74,-445.3 -822.2,-6.29 -822.2,-6.29 135.61,40.99 233.84,62.09 233.84,62.09 h 375.58 c 0,0 88.2,-18.97 212.78,-55.8"
         style="fill:#f3a29c;fill-opacity:1;fill-rule:nonzero;stroke:none"
         id="path78" /><path
         d="m 3175.42,279.801 h 30 v 507.828 h -30 z"
         style="fill:#f57819;fill-opacity:1;fill-rule:nonzero;stroke:none"
         id="path80" /><path
         d="m 3202.22,473.219 -136.36,173.851 -23.6,-18.511 136.36,-173.86 23.6,18.52"
         style="fill:#f57819;fill-opacity:1;fill-rule:nonzero;stroke:none"
         id="path82" /><path
         d="m 4953.44,279.801 h 30 v 507.828 h -30 z"
         style="fill:#f57819;fill-opacity:1;fill-rule:nonzero;stroke:none"
         id="path84" /><path
         d="m 4980.24,454.699 121.07,154.371 -23.6,18.512 -121.08,-154.363"
         style="fill:#f57819;fill-opacity:1;fill-rule:nonzero;stroke:none"
         id="path86" /><path
         d="m 3633.07,1463.31 c 0.55,-0.37 55.26,-37.7 141.03,-75.11 85.77,-37.38 202.64,-74.97 327.93,-75.01 65.67,0 133.67,10.4 200.31,36.78 66.64,26.36 131.82,68.74 191.67,132.06 l -21.8,20.61 c -57.01,-60.27 -118.27,-99.97 -180.91,-124.78 -62.64,-24.79 -126.74,-34.66 -189.27,-34.67 -119.22,-0.04 -232.59,36.13 -315.94,72.51 -41.68,18.17 -75.84,36.36 -99.52,49.96 -11.83,6.8 -21.05,12.45 -27.27,16.38 -3.11,1.97 -5.47,3.5 -7.04,4.53 l -1.74,1.16 -0.53,0.35 -16.92,-24.77"
         style="fill:#f57819;fill-opacity:1;fill-rule:nonzero;stroke:none"
         id="path88" /><g
         id="g90"
         transform="scale(10)"><text
           transform="matrix(1,0,0,-1,451.716,77.0961)"
           style="font-variant:normal;font-weight:bold;font-size:44.386px;font-family:Montserrat;-inkscape-font-specification:Montserrat-Bold;writing-mode:lr-tb;fill:#ffffff;fill-opacity:1;fill-rule:nonzero;stroke:none"
           id="text94"><tspan
             x="0"
             y="0"
             id="tspan92">x</tspan></text></g><path
         d="m 3649.27,3216.35 c 112.68,473.59 1241.55,421.48 1031.49,-500.59 -62.93,-276.2 -523.01,627.85 -920.08,406.06 -29.68,-16.58 -66.67,-12.29 -91.49,10.95 -22.79,21.35 -27.15,53.2 -19.92,83.58"
         style="fill:#d82b62;fill-opacity:1;fill-rule:nonzero;stroke:none"
         id="path96" /><path
         d="m 4269.31,283.5 -1.11,-0.199 c -2.69,-0.301 -5.49,-0.403 -8.3,-0.403 H 2070 c -29.09,0 -54.99,13.5 -71.89,34.704 -12.6,15.707 -20.1,35.707 -20.1,57.398 l -0.31,1 -341,963.51 c -26.1,73.6 28.51,150.9 106.61,150.9 h 1421.8 c 48,0 90.69,-30.2 106.7,-75.4 l 367.5,-1038.209 c 0.4,-1.192 0.6,-1.801 0.6,-1.801 H 4262 c 57.1,0 63.41,-85.398 7.31,-91.5"
         style="fill:#67aebb;fill-opacity:1;fill-rule:nonzero;stroke:none"
         id="path98" /><path
         d="m 2636.16,908.75 c 35.95,-104.551 -4.7,-213.301 -90.81,-242.91 -86.1,-29.61 -185.05,31.14 -221,135.68 -35.96,104.55 4.7,213.3 90.81,242.91 86.1,29.61 185.05,-31.13 221,-135.68"
         style="fill:#ffffff;fill-opacity:1;fill-rule:nonzero;stroke:none"
         id="path100" /><path
         d="m 4262.03,375.02 h -622.14 c 0,0 -0.17,0.628 -0.53,1.8 L 3271.8,1415.03 c -16.02,45.19 -58.69,75.35 -106.67,75.35 h -47.54 c 0,0 106.23,-6.94 132.79,-102 26.55,-94.97 389.51,-1103.47 389.51,-1103.47 l 26.83,-1.98 h 593.14 c 2.88,0 5.68,0.09 8.38,0.359 57.25,5.223 51.22,91.731 -6.21,91.731"
         style="fill:#3b719a;fill-opacity:1;fill-rule:nonzero;stroke:none"
         id="path102" /><path
         d="M 4259.9,282.898 H 2070 c -29.09,0 -54.99,13.5 -71.89,34.704 53.72,-4.614 105,-6.832 153.93,-6.832 1062.97,0 1022.57,1043.64 1014.02,1167.65 31.71,-12.6 69.84,-38.23 84.32,-90.04 26.55,-94.97 389.51,-1103.47 389.51,-1103.47 l 26.83,-1.98 h 593.14 c 2.22,0 4.39,0.05 6.5,0.199 -2.12,-0.168 -4.29,-0.231 -6.46,-0.231 m -620.01,92.122 v 0 c 0,0 -0.01,0.07 -0.05,0.191 0.03,-0.102 0.05,-0.16 0.06,-0.191 m -374.25,1054.22 c -0.01,0.02 -0.02,0.03 -0.03,0.05 0.01,-0.02 0.02,-0.03 0.03,-0.05 m -0.07,0.12 c -19.24,37.12 -57.75,61.02 -100.45,61.02 h -0.02 c 0,0.02 0,0.03 0,0.03 42.71,0 81.23,-23.92 100.47,-61.05"
         style="fill:#58a5b0;fill-opacity:1;fill-rule:nonzero;stroke:none"
         id="path104" /><path
         d="m 4259.86,282.93 h -593.14 l -26.83,1.98 c 0,0 -362.96,1008.5 -389.51,1103.47 -14.48,51.81 -52.61,77.44 -84.32,90.04 -0.51,7.45 -0.91,11.57 -0.95,11.96 h 0.02 c 42.7,0 81.21,-23.9 100.45,-61.02 0.02,-0.02 0.03,-0.05 0.04,-0.07 0.01,-0.02 0.02,-0.03 0.03,-0.05 2.35,-4.55 4.41,-9.3 6.16,-14.23 l 367.5,-1038.209 c 0.26,-0.789 0.44,-1.332 0.53,-1.59 0.04,-0.121 0.05,-0.191 0.05,-0.191 v 0 c 0.02,-0.008 0.02,-0.02 0.02,-0.02 h 612.3 c 6.6,-30.301 12.4,-60.801 17.1,-91.5 l -1.11,-0.199 c -0.61,-0.063 -1.22,-0.121 -1.84,-0.172 v 0 c -2.11,-0.149 -4.28,-0.199 -6.5,-0.199"
         style="fill:#3d809b;fill-opacity:1;fill-rule:nonzero;stroke:none"
         id="path106" /><path
         d="m 1665.33,918.961 v -32.242 c -58.26,-6.66 -72.51,-55.918 -72.51,-115.899 V 751 c 0,-59.969 14.25,-109.238 72.51,-115.91 V 603.02 H 551.43 c -45.707,0 -82.739,37.031 -82.739,82.75 v 150.289 c 0,45.711 37.032,82.902 82.739,82.902 h 1113.9"
         style="fill:#3b719a;fill-opacity:1;fill-rule:nonzero;stroke:none"
         id="path108" /><path
         d="m 1647.97,668.102 c 6.67,-15.801 -5.57,-33.012 -22.62,-33.012 L 560.883,634.32 V 887.5 l 1064.467,-0.781 c 6.2,0 11.78,-2.309 15.96,-6.028 7.44,-6.203 10.85,-16.902 6.66,-26.961 -8.83,-21.082 -8.52,-50.371 -8.52,-82.91 V 751 c 0,-32.539 -0.31,-61.828 8.52,-82.898"
         style="fill:#ffffff;fill-opacity:1;fill-rule:nonzero;stroke:none"
         id="path110" /><path
         d="m 615.73,739.531 v 147.93 l 824.3,-0.602 c -0.52,-1.597 8.08,-8.187 21.1,-17.199 -122.23,-8.34 -288.73,-21.351 -441.9,-38.871 H 617.543 V 807.961 H 847.84 c -55.59,-8.75 -104.977,-18.281 -143.969,-28.57 h -86.328 v -22.809 h 20.91 c -10.855,-5.512 -18.59,-11.203 -22.723,-17.051"
         style="fill:#caedef;fill-opacity:1;fill-rule:nonzero;stroke:none"
         id="path112" /><path
         d="m 615.73,602.961 h -93.597 c -29.512,0 -53.438,23.93 -53.438,53.437 v 209.043 c 0,29.52 23.926,53.438 53.438,53.438 H 615.73 V 602.961"
         style="fill:#3b719a;fill-opacity:1;fill-rule:nonzero;stroke:none"
         id="path114" /><path
         d="m 1649.82,659 c 0.01,2.82 -0.5,5.699 -1.62,8.539 1.12,-2.84 1.63,-5.719 1.62,-8.539"
         style="fill:#4a697f;fill-opacity:1;fill-rule:nonzero;stroke:none"
         id="path116" /><path
         d="m 1412.85,634.949 c 61.63,7.012 99.36,29.942 122.42,56.25 h 104.18 v 22.821 h -87.94 c 8.52,14.929 13.4,29.82 16.18,42.562 h 71.76 V 751 c 0,-2.16 0,-4.309 0,-6.441 0,-29.95 0.28,-56.789 8.52,-76.457 0.08,-0.192 0.16,-0.372 0.23,-0.563 1.12,-2.84 1.63,-5.719 1.62,-8.539 -0.04,-12.648 -10.69,-23.898 -24.47,-23.898 l -212.5,-0.153"
         style="fill:#caedef;fill-opacity:1;fill-rule:nonzero;stroke:none"
         id="path118" /><path
         d="m 1639.45,779.391 h -68.51 c 0.56,8.359 0.17,13.449 0.17,13.449 0.44,1.558 -6.7,7.25 -17.84,15.121 h 86.18 v 22.828 h -119.94 c -20.36,13.461 -42.62,27.953 -58.38,38.871 103.13,7.031 174.7,10.738 180.18,11.031 v 0 c 5.23,-4.359 8.47,-10.941 8.48,-17.972 0,-2.957 -0.57,-6.008 -1.82,-8.989 -0.48,-1.16 -0.94,-2.332 -1.37,-3.531 -6.73,-18.82 -7.13,-43.461 -7.15,-70.808"
         style="fill:#caedef;fill-opacity:1;fill-rule:nonzero;stroke:none"
         id="path120" /><path
         d="m 1625.35,886.719 -185.32,0.14 c 0,0.012 0.01,0.012 0.01,0.02 l 185.31,-0.16"
         style="fill:#5799b5;fill-opacity:1;fill-rule:nonzero;stroke:none"
         id="path122" /><path
         d="m 1461.13,869.66 c -13.02,9.012 -21.62,15.602 -21.1,17.199 l 185.32,-0.14 c 6.2,0 11.78,-2.309 15.96,-6.028 -5.48,-0.293 -77.05,-4 -180.18,-11.031"
         style="fill:#aee4e9;fill-opacity:1;fill-rule:nonzero;stroke:none"
         id="path124" /><path
         d="m 1639.45,756.582 v 0 14.25 c 0,2.156 0,4.309 0,6.438 0,0.71 0,1.41 0,2.121 v 0 -22.809"
         style="fill:#4a697f;fill-opacity:1;fill-rule:nonzero;stroke:none"
         id="path126" /><path
         d="M 1567.69,756.582 H 638.453 c 15.727,7.969 38.016,15.578 65.418,22.809 h 867.069 c -0.41,-6.102 -1.32,-13.942 -3.25,-22.809 m 71.76,20.688 c 0,0.71 0,1.41 0,2.121 v 0 c 0,-0.711 0,-1.411 0,-2.121"
         style="fill:#caedef;fill-opacity:1;fill-rule:nonzero;stroke:none"
         id="path128" /><path
         d="m 638.453,756.582 h -20.91 v 22.809 h 86.328 c -27.402,-7.231 -49.691,-14.84 -65.418,-22.809"
         style="fill:#aee4e9;fill-opacity:1;fill-rule:nonzero;stroke:none"
         id="path130" /><path
         d="m 1639.45,756.582 v 0 14.238 c 0,2.168 0,4.309 0,6.45 0,-2.129 0,-4.282 0,-6.438 v -14.25"
         style="fill:#6295a6;fill-opacity:1;fill-rule:nonzero;stroke:none"
         id="path132" /><path
         d="m 1639.45,756.582 h -71.76 c 1.93,8.867 2.84,16.707 3.25,22.809 h 68.51 c 0,-0.711 0,-1.411 0,-2.121 0,-2.141 0,-4.282 0,-6.45 v -14.238"
         style="fill:#aee4e9;fill-opacity:1;fill-rule:nonzero;stroke:none"
         id="path134" /><path
         d="M 1553.27,807.961 H 847.84 c 52.711,8.309 111.012,15.918 171.39,22.828 h 500.28 c 12.65,-8.367 24.56,-16.34 33.76,-22.828"
         style="fill:#caedef;fill-opacity:1;fill-rule:nonzero;stroke:none"
         id="path136" /><path
         d="M 847.84,807.961 H 617.543 v 22.828 H 1019.23 C 958.852,823.879 900.551,816.27 847.84,807.961"
         style="fill:#aee4e9;fill-opacity:1;fill-rule:nonzero;stroke:none"
         id="path138" /><path
         d="m 1639.45,807.961 h -86.18 c -9.2,6.488 -21.11,14.461 -33.76,22.828 h 119.94 v -22.828"
         style="fill:#aee4e9;fill-opacity:1;fill-rule:nonzero;stroke:none"
         id="path140" /><path
         d="M 1535.27,691.199 H 617.543 v 22.821 h 933.967 c -4.38,-7.688 -9.72,-15.391 -16.24,-22.821"
         style="fill:#caedef;fill-opacity:1;fill-rule:nonzero;stroke:none"
         id="path142" /><path
         d="m 1639.45,691.199 h -104.18 c 6.52,7.43 11.86,15.133 16.24,22.821 h 87.94 v -22.821"
         style="fill:#aee4e9;fill-opacity:1;fill-rule:nonzero;stroke:none"
         id="path144" /><path
         d="m 1310.29,681.602 -54.33,54.187 -54.34,-54.187 v 149.187 h 108.67 V 681.602"
         style="fill:#e72b61;fill-opacity:1;fill-rule:nonzero;stroke:none"
         id="path146" /><path
         d="m 1784.48,604.102 v -32.231 c -58.26,-6.66 -72.52,-55.941 -72.52,-115.902 v -19.828 c 0,-59.961 14.26,-109.243 72.52,-115.903 V 288.16 H 670.582 c -45.707,0 -82.742,37.039 -82.742,82.738 v 150.313 c 0,45.699 37.035,82.891 82.742,82.891 H 1784.48"
         style="fill:#e72b61;fill-opacity:1;fill-rule:nonzero;stroke:none"
         id="path148" /><path
         d="m 1767.12,353.238 c 6.67,-15.797 -5.57,-33 -22.62,-33 L 680.027,319.469 v 253.172 l 1064.473,-0.77 c 6.2,0 11.78,-2.32 15.96,-6.051 7.44,-6.199 10.85,-16.879 6.66,-26.961 -8.83,-21.07 -8.52,-50.347 -8.52,-82.89 v -19.828 c 0,-32.539 -0.31,-61.832 8.52,-82.903"
         style="fill:#ffffff;fill-opacity:1;fill-rule:nonzero;stroke:none"
         id="path150" /><path
         d="M 734.879,424.66 V 572.602 L 1559.18,572 c -0.51,-1.602 8.09,-8.191 21.1,-17.211 -122.23,-8.328 -288.72,-21.34 -441.91,-38.867 H 736.695 v -22.82 H 966.957 C 911.367,484.34 861.988,474.809 822.996,464.531 h -86.301 v -22.82 h 20.891 c -10.856,-5.5 -18.57,-11.18 -22.703,-17.039 0,0 -0.004,0 -0.004,-0.012"
         style="fill:#caedef;fill-opacity:1;fill-rule:nonzero;stroke:none"
         id="path152" /><path
         d="m 734.879,288.102 h -93.594 c -29.519,0 -53.437,23.929 -53.437,53.437 V 550.59 c 0,29.512 23.918,53.441 53.437,53.441 h 93.594 V 288.102"
         style="fill:#e72b61;fill-opacity:1;fill-rule:nonzero;stroke:none"
         id="path154" /><path
         d="m 1532,320.082 c 0.01,0 0.02,0 0.03,0.008 l 212.47,0.148 c 6.24,0 11.83,2.301 16.09,5.992 v 0 c -4.26,-3.691 -9.85,-5.992 -16.09,-5.992 L 1532,320.082"
         style="fill:#c36493;fill-opacity:1;fill-rule:nonzero;stroke:none"
         id="path156" /><path
         d="m 1532.03,320.09 c 61.62,7.012 99.33,29.949 122.39,56.242 h 104.18 v 22.816 h -87.94 c 8.52,14.942 13.4,29.821 16.17,42.563 h 71.77 v -5.57 c 0,-2.161 0,-4.309 0,-6.442 0,-29.949 0.28,-56.789 8.52,-76.461 1.28,-3.027 1.86,-6.097 1.85,-9.097 -0.02,-6.93 -3.23,-13.442 -8.38,-17.911 -4.26,-3.691 -9.85,-5.992 -16.09,-5.992 l -212.47,-0.148"
         style="fill:#caedef;fill-opacity:1;fill-rule:nonzero;stroke:none"
         id="path158" /><path
         d="m 1758.6,464.531 h -68.51 c 0.56,8.36 0.17,13.438 0.17,13.438 0.44,1.57 -6.7,7.261 -17.84,15.133 h 86.18 v 22.82 h -119.94 c -20.36,13.469 -42.61,27.949 -58.38,38.867 103.09,7.043 174.7,10.742 180.18,11.031 v 0 c 5.23,-4.359 8.47,-10.929 8.48,-17.961 0,-2.961 -0.57,-6.007 -1.82,-9 -8.05,-19.211 -8.5,-45.23 -8.52,-74.328"
         style="fill:#caedef;fill-opacity:1;fill-rule:nonzero;stroke:none"
         id="path160" /><path
         d="M 1744.5,571.871 1559.18,572 c 0,0.012 0.01,0.02 0.01,0.031 l 185.31,-0.16"
         style="fill:#c36493;fill-opacity:1;fill-rule:nonzero;stroke:none"
         id="path162" /><path
         d="m 1580.28,554.789 c -13.01,9.02 -21.61,15.609 -21.1,17.211 l 185.32,-0.129 c 6.2,0 11.78,-2.32 15.96,-6.051 -5.48,-0.289 -77.09,-3.988 -180.18,-11.031"
         style="fill:#aee4e9;fill-opacity:1;fill-rule:nonzero;stroke:none"
         id="path164" /><path
         d="m 1758.6,441.711 v 0 14.258 c 0,2.16 0,4.312 0,6.441 0,0.711 0,1.41 0,2.121 v 0 -22.82"
         style="fill:#4a697f;fill-opacity:1;fill-rule:nonzero;stroke:none"
         id="path166" /><path
         d="M 1686.83,441.711 H 757.586 c 15.723,7.98 38.004,15.59 65.41,22.82 h 867.094 c -0.41,-6.101 -1.32,-13.941 -3.26,-22.82"
         style="fill:#caedef;fill-opacity:1;fill-rule:nonzero;stroke:none"
         id="path168" /><path
         d="m 757.586,441.711 h -20.891 v 22.82 h 86.301 c -27.406,-7.23 -49.687,-14.84 -65.41,-22.82"
         style="fill:#aee4e9;fill-opacity:1;fill-rule:nonzero;stroke:none"
         id="path170" /><path
         d="m 1758.6,441.711 h -71.77 c 1.94,8.879 2.85,16.719 3.26,22.82 h 68.51 c 0,-0.711 0,-1.41 0,-2.121 0,-2.129 0,-4.281 0,-6.441 v -14.258"
         style="fill:#aee4e9;fill-opacity:1;fill-rule:nonzero;stroke:none"
         id="path172" /><path
         d="M 1672.42,493.102 H 966.957 c 52.713,8.296 111.023,15.91 171.413,22.82 h 500.29 c 12.65,-8.363 24.56,-16.332 33.76,-22.82"
         style="fill:#caedef;fill-opacity:1;fill-rule:nonzero;stroke:none"
         id="path174" /><path
         d="M 966.957,493.102 H 736.695 v 22.82 h 401.675 c -60.39,-6.91 -118.7,-14.524 -171.413,-22.82"
         style="fill:#aee4e9;fill-opacity:1;fill-rule:nonzero;stroke:none"
         id="path176" /><path
         d="m 1758.6,493.102 h -86.18 c -9.2,6.488 -21.11,14.457 -33.76,22.82 h 119.94 v -22.82"
         style="fill:#aee4e9;fill-opacity:1;fill-rule:nonzero;stroke:none"
         id="path178" /><path
         d="M 1654.42,376.332 H 736.695 v 22.816 h 933.965 c -4.38,-7.679 -9.72,-15.378 -16.24,-22.816"
         style="fill:#caedef;fill-opacity:1;fill-rule:nonzero;stroke:none"
         id="path180" /><path
         d="m 1758.6,376.332 h -104.18 c 6.52,7.438 11.86,15.137 16.24,22.816 h 87.94 v -22.816"
         style="fill:#aee4e9;fill-opacity:1;fill-rule:nonzero;stroke:none"
         id="path182" /><path
         d="M 1646.82,346.879 1589.41,404.141 1532,346.879 V 504.52 h 114.82 V 346.879"
         style="fill:#e72b61;fill-opacity:1;fill-rule:nonzero;stroke:none"
         id="path184" /><path
         d="M 7178.5,150.898 V 127.809 C 7178.5,57.1992 7121.2,0.0117188 7050.6,0.0117188 H 510.203 C 450.711,0.0117188 400.707,40.6094 386.406,95.5 l -0.101,0.3086 c -2.598,10.3004 -4,20.9924 -4,32.0004 v 23.089 c 0,70.614 57.203,127.813 127.898,127.813 H 7050.6 c 70.6,0 127.9,-57.199 127.9,-127.813"
         style="fill:#3c5282;fill-opacity:1;fill-rule:nonzero;stroke:none"
         id="path186" /><path
         d="M 7050.6,0.0117188 H 510.203 C 450.711,0.0117188 400.707,40.6094 386.406,95.5 l -0.101,0.3086 v 0 c -2.696,20.4924 -4,32.0004 -4,32.0004 C 1066.16,103.98 1727.39,94.2695 2349.75,94.2695 c 2715.38,0 4700.85,184.4415 4700.85,184.4415 70.6,0 127.9,-57.199 127.9,-127.813 v -23.089 c 0,-51.0277 -29.92,-95.0473 -73.16,-115.5395 -16.6,-7.87106 -35.16,-12.2577812 -54.74,-12.2577812"
         style="fill:#2d3a5d;fill-opacity:1;fill-rule:nonzero;stroke:none"
         id="path188" /><path
         d="m 6842.95,3574.83 c -45.58,0 -82.53,36.94 -82.53,82.53 0,45.58 36.95,82.53 82.53,82.53 45.59,0 82.53,-36.95 82.53,-82.53 0,-45.59 -36.94,-82.53 -82.53,-82.53 z m 172.45,80.14 0.1,2.39 -0.1,2.29 c 11.96,5.51 24.03,11.86 35.9,19.56 12.69,8.74 25.6,18.84 37.57,30.39 l -2.6,10.2 c -2.5,11.55 -6.97,22.68 -11.04,33.82 -2.28,5.41 -4.99,10.72 -7.59,16.03 -2.4,5.52 -5.31,10.61 -8.53,15.61 l -5.42,8.95 c -16.34,-0.1 -32.88,-2.18 -47.98,-5 -13.62,-2.8 -26.84,-6.86 -39.12,-11.55 l -3.33,3.33 c 4.58,12.39 8.74,25.5 11.45,39.13 2.91,15.09 4.99,31.64 5.09,47.98 l -8.94,5.41 c -5,3.23 -10.21,6.14 -15.62,8.54 -5.31,2.6 -10.61,5.3 -16.13,7.59 -11.13,4.06 -22.17,8.54 -33.72,11.03 l -10.19,2.61 c -11.55,-11.97 -21.65,-24.77 -30.4,-37.57 -7.69,-11.77 -14.04,-23.84 -19.56,-35.91 l -2.29,0.21 -2.39,-0.21 c -5.41,12.07 -11.87,24.14 -19.57,35.91 -8.64,12.8 -18.83,25.6 -30.28,37.57 l -10.2,-2.61 c -11.65,-2.49 -22.69,-6.97 -33.82,-11.03 -5.41,-2.29 -10.72,-4.99 -16.13,-7.59 -5.41,-2.4 -10.51,-5.31 -15.62,-8.54 l -8.94,-5.41 c 0.2,-16.34 2.28,-32.89 5.09,-47.98 2.81,-13.63 6.87,-26.74 11.56,-39.13 -1.15,-1.14 -2.3,-2.18 -3.33,-3.33 -12.39,4.69 -25.5,8.75 -39.13,11.55 -15.09,2.82 -31.74,4.9 -47.98,5 l -5.52,-8.95 c -3.12,-5 -6.04,-10.09 -8.53,-15.61 -2.5,-5.31 -5.2,-10.62 -7.5,-16.03 -4.16,-11.14 -8.53,-22.27 -11.02,-33.82 l -2.61,-10.2 c 11.97,-11.55 24.78,-21.65 37.57,-30.39 11.76,-7.7 23.84,-14.05 35.8,-19.56 l -0.1,-2.29 0.1,-2.39 c -11.96,-5.41 -24.04,-11.87 -35.8,-19.58 -12.79,-8.63 -25.6,-18.83 -37.57,-30.28 l 2.61,-10.2 c 2.49,-11.55 6.86,-22.68 11.02,-33.82 2.3,-5.41 5,-10.72 7.5,-16.13 2.49,-5.41 5.41,-10.51 8.53,-15.51 l 5.52,-8.95 c 16.24,0.1 32.89,2.19 47.98,5 13.63,2.81 26.74,6.87 39.13,11.55 1.03,-1.14 2.18,-2.29 3.33,-3.33 -4.69,-12.38 -8.75,-25.5 -11.56,-39.13 -2.81,-15.09 -4.89,-31.74 -5.09,-47.98 l 8.94,-5.51 c 5.11,-3.12 10.21,-6.04 15.62,-8.43 5.41,-2.6 10.72,-5.31 16.13,-7.6 11.13,-4.16 22.17,-8.53 33.82,-11.03 l 10.2,-2.6 c 11.45,11.97 21.64,24.77 30.28,37.57 7.7,11.76 14.16,23.83 19.57,35.9 l 2.39,-0.21 2.29,0.21 c 5.52,-12.07 11.87,-24.14 19.56,-35.9 8.75,-12.8 18.85,-25.6 30.4,-37.57 l 10.19,2.6 c 11.55,2.5 22.59,6.87 33.72,11.03 5.52,2.29 10.82,5 16.13,7.6 5.41,2.39 10.62,5.31 15.62,8.43 l 8.94,5.51 c -0.1,16.24 -2.18,32.89 -5.09,47.98 -2.71,13.63 -6.87,26.75 -11.45,39.13 1.14,1.04 2.19,2.19 3.33,3.33 12.28,-4.68 25.5,-8.74 39.12,-11.55 15.1,-2.81 31.64,-4.9 47.98,-5 l 5.42,8.95 c 3.22,5 6.13,10.1 8.53,15.51 2.6,5.41 5.31,10.72 7.59,16.13 4.07,11.14 8.54,22.27 11.04,33.82 l 2.6,10.2 c -11.97,11.45 -24.88,21.65 -37.57,30.28 -11.87,7.71 -23.94,14.17 -35.9,19.58"
         style="fill:#f78f45;fill-opacity:1;fill-rule:nonzero;stroke:none"
         id="path190" /><path
         d="m 6606.38,3534.98 h -40 v -10 h 40 z m -80,0 h -40 v -10 h 40 z m -80,0 h -40 v -10 h 40 z m -80,0 h -40 v -10 h 40 z m -80,0 h -40 v -10 h 40 z m -80,0 h -40 v -10 h 40 z m -80,0 h -40 v -10 h 40 z m -81.88,-48.12 h 10 v 40 h -10 z m 0,-80 h 10 v 40 h -10 z m 0,-80 h 10 v 40 h -10 z m 0,-80 h 10 v 40 h -10 z m 0,-80 h 10 v 40 h -10 z m 0,-80 h 10 v 40 h -10 z m 0,-80 h 10 v 40 h -10 z m 19.71,-30.3 h 40 v 10 h -40 z m 80,0 h 40 v 10 h -40 z"
         style="fill:#f36241;fill-opacity:1;fill-rule:nonzero;stroke:none"
         id="path192" /><path
         d="m 6523.54,2633.31 h -306.15 v 54.72 h 306.15 v -54.72"
         style="fill:#ffffff;fill-opacity:1;fill-rule:nonzero;stroke:none"
         id="path194" /><path
         d="m 6688.07,2532.08 h -470.68 v 54.72 h 470.68 v -54.72"
         style="fill:#ffffff;fill-opacity:1;fill-rule:nonzero;stroke:none"
         id="path196" /><path
         d="m 6377.7,2430.85 h -160.31 v 54.72 h 160.31 v -54.72"
         style="fill:#ffffff;fill-opacity:1;fill-rule:nonzero;stroke:none"
         id="path198" /><path
         d="m 6603.44,2430.85 h -160.31 v 54.72 h 160.31 v -54.72"
         style="fill:#f78f45;fill-opacity:1;fill-rule:nonzero;stroke:none"
         id="path200" /><path
         d="M 6891.01,2430.85 H 6660.8 v 54.72 h 230.21 v -54.72"
         style="fill:#f78f45;fill-opacity:1;fill-rule:nonzero;stroke:none"
         id="path202" /><path
         d="m 6891.01,2532.08 h -139.79 v 54.72 h 139.79 v -54.72"
         style="fill:#f78f45;fill-opacity:1;fill-rule:nonzero;stroke:none"
         id="path204" /><path
         d="m 6891.01,2633.31 h -306.15 v 54.72 h 306.15 v -54.72"
         style="fill:#f78f45;fill-opacity:1;fill-rule:nonzero;stroke:none"
         id="path206" /><path
         d="m 6992.95,2432.51 h 10.2 v 609.85 h -10.2 v -609.85"
         style="fill:#ffffff;fill-opacity:1;fill-rule:nonzero;stroke:none"
         id="path208" /><path
         d="m 6536.95,2963.69 h -314.81 v 56.27 h 314.81 v -56.27"
         style="fill:#ffffff;fill-opacity:1;fill-rule:nonzero;stroke:none"
         id="path210" /><path
         d="m 6706.14,2859.59 h -484 v 56.27 h 484 v -56.27"
         style="fill:#ffffff;fill-opacity:1;fill-rule:nonzero;stroke:none"
         id="path212" /><path
         d="m 6386.99,2755.5 h -164.85 v 56.27 h 164.85 v -56.27"
         style="fill:#ffffff;fill-opacity:1;fill-rule:nonzero;stroke:none"
         id="path214" /><path
         d="m 6619.12,2755.5 h -164.85 v 56.27 h 164.85 v -56.27"
         style="fill:#f78f45;fill-opacity:1;fill-rule:nonzero;stroke:none"
         id="path216" /><path
         d="m 6914.82,2755.5 h -236.71 v 56.27 h 236.71 v -56.27"
         style="fill:#f78f45;fill-opacity:1;fill-rule:nonzero;stroke:none"
         id="path218" /><path
         d="m 6914.82,2859.59 h -143.75 v 56.27 h 143.75 v -56.27"
         style="fill:#f78f45;fill-opacity:1;fill-rule:nonzero;stroke:none"
         id="path220" /><path
         d="m 6914.82,2963.69 h -314.81 v 56.27 h 314.81 v -56.27"
         style="fill:#f78f45;fill-opacity:1;fill-rule:nonzero;stroke:none"
         id="path222" /><path
         d="m 5827.05,2288.35 h -905.91 v 1780.21 h 905.91 V 2288.35"
         style="fill:#3f436d;fill-opacity:1;fill-rule:nonzero;stroke:none"
         id="path224" /><path
         d="m 5704.49,3617.7 h -680.15 v 72.24 h 680.15 v -72.24"
         style="fill:#ffffff;fill-opacity:1;fill-rule:nonzero;stroke:none"
         id="path226" /><path
         d="m 5474.5,3457.74 h -450.16 v 72.24 h 450.16 v -72.24"
         style="fill:#ffffff;fill-opacity:1;fill-rule:nonzero;stroke:none"
         id="path228" /><path
         d="m 5704.49,3457.74 h -163.13 v 72.24 h 163.13 v -72.24"
         style="fill:#f78f45;fill-opacity:1;fill-rule:nonzero;stroke:none"
         id="path230" /><path
         d="m 5704.49,3297.78 h -421.48 v 72.24 h 421.48 v -72.24"
         style="fill:#f78f45;fill-opacity:1;fill-rule:nonzero;stroke:none"
         id="path232" /><path
         d="m 5221.73,3297.78 h -197.39 v 72.24 h 197.39 v -72.24"
         style="fill:#ffffff;fill-opacity:1;fill-rule:nonzero;stroke:none"
         id="path234" /><path
         d="m 5383.86,3137.82 h -359.52 v 72.24 h 359.52 v -72.24"
         style="fill:#ffffff;fill-opacity:1;fill-rule:nonzero;stroke:none"
         id="path236" /><path
         d="m 5704.49,3137.82 h -265.26 v 72.24 h 265.26 v -72.24"
         style="fill:#f78f45;fill-opacity:1;fill-rule:nonzero;stroke:none"
         id="path238" /><path
         d="m 5704.49,2977.86 h -482.76 v 72.24 h 482.76 v -72.24"
         style="fill:#f78f45;fill-opacity:1;fill-rule:nonzero;stroke:none"
         id="path240" /><path
         d="m 5170.27,2977.86 h -145.93 v 72.24 h 145.93 v -72.24"
         style="fill:#ffffff;fill-opacity:1;fill-rule:nonzero;stroke:none"
         id="path242" /><path
         d="m 5316.2,2817.9 h -291.86 v 72.24 h 291.86 v -72.24"
         style="fill:#ffffff;fill-opacity:1;fill-rule:nonzero;stroke:none"
         id="path244" /><path
         d="m 5704.49,2817.9 h -340.08 v 72.24 h 340.08 v -72.24"
         style="fill:#f78f45;fill-opacity:1;fill-rule:nonzero;stroke:none"
         id="path246" /><path
         d="m 5684.4,2463.82 v -20.32 l -74.44,-28.31 v 19.55 l 52.08,18.93 -52.08,19.07 v 19.39 l 74.44,-28.31"
         style="fill:#f78f45;fill-opacity:1;fill-rule:nonzero;stroke:none"
         id="path248" /><path
         d="m 5472.75,2492.13 v -19.39 l -52.08,-19.07 52.08,-18.93 v -19.55 l -74.44,28.31 v 20.32 l 74.44,28.31"
         style="fill:#f78f45;fill-opacity:1;fill-rule:nonzero;stroke:none"
         id="path250" /><path
         d="m 5560.76,2546.94 h 23.29 l -55.29,-157.81 h -23.28 l 55.28,157.81"
         style="fill:#f78f45;fill-opacity:1;fill-rule:nonzero;stroke:none"
         id="path252" /><path
         d="m 5342.59,3853.11 v -26.64 l -97.57,-37.1 v 25.62 l 68.25,24.8 -68.25,25.01 v 25.42 l 97.57,-37.11"
         style="fill:#f78f45;fill-opacity:1;fill-rule:nonzero;stroke:none"
         id="path254" /><path
         d="m 5163.17,3890.22 v -25.42 l -68.25,-25.01 68.25,-24.8 v -25.62 l -97.55,37.1 v 26.64 l 97.55,37.11"
         style="fill:#f78f45;fill-opacity:1;fill-rule:nonzero;stroke:none"
         id="path256" /><g
         id="g258"
         transform="scale(10)"><text
           transform="matrix(1,0,0,-1,492.701,421.36)"
           style="font-variant:normal;font-weight:900;font-size:18.4267px;font-family:Montserrat;-inkscape-font-specification:Montserrat-Black;writing-mode:lr-tb;fill:#ffffff;fill-opacity:1;fill-rule:nonzero;stroke:none"
           id="text262"><tspan
             x="0 14.814481 26.865543 44.444614"
             y="0"
             sodipodi:role="line"
             id="tspan260">HTML</tspan></text></g><path
         d="m 633.984,1938.46 c -79.476,-35.45 -172.972,0.37 -208.418,79.85 -21.086,47.27 -16.945,99.5 6.598,141.49 l 0.524,0.97 c 16.046,28.23 40.863,51.75 72.734,65.96 5.961,2.66 12.039,4.92 18.148,6.76 l 1.922,0.61 c 31.571,9.24 64.317,8.08 94.086,-1.87 l 0.363,-0.1 c 25.504,-8.58 48.774,-23.63 67.176,-44.09 10.754,-11.92 19.84,-25.73 26.723,-41.16 4.273,-9.6 7.5,-19.39 9.738,-29.25 16.418,-71.95 -19.715,-148.01 -89.594,-179.17 z m 95.196,306.36 c -18.805,18.44 -40.524,33.35 -64.067,44.17 l -1.289,0.6 c -33.183,15.04 -69.824,22.16 -106.832,20.12 -25.308,-1.34 -50.765,-7.04 -75.367,-17.37 -1.523,-0.65 -3.07,-1.31 -4.582,-1.98 -44.113,-19.67 -78.914,-51.75 -102.07,-90.34 -37.039,-61.55 -44.461,-139.62 -13.035,-210.08 51.089,-114.55 185.871,-166.2 300.421,-115.1 105.008,46.82 157.145,163.96 125.762,271.39 -2.844,9.79 -6.402,19.48 -10.66,29.03 -11.953,26.8 -28.477,50.16 -48.281,69.56"
         style="fill:#5c5e94;fill-opacity:1;fill-rule:nonzero;stroke:none"
         id="path264" /><path
         d="m 665.113,2288.99 c 23.543,-10.82 45.262,-25.73 64.067,-44.17 19.804,-19.4 36.328,-42.76 48.281,-69.56 4.258,-9.55 7.816,-19.24 10.66,-29.03 l -64.543,-28.6 c -2.238,9.86 -5.465,19.65 -9.738,29.25 -6.883,15.43 -15.969,29.24 -26.723,41.16 -18.402,20.46 -41.672,35.51 -67.176,44.09 l -0.363,0.1 44.246,57.36"
         style="fill:#f78f45;fill-opacity:1;fill-rule:nonzero;stroke:none"
         id="path266" /><path
         d="m 665.113,2288.99 -45.172,-56.86"
         style="fill:#f78f45;fill-opacity:1;fill-rule:nonzero;stroke:none"
         id="path268" /><path
         d="m 619.941,2232.13 -0.363,0.1 c -29.769,9.95 -62.515,11.11 -94.086,1.87 l -1.922,-0.61 -41.945,58.85 c 24.602,10.33 50.059,16.03 75.367,17.37 37.008,2.04 73.649,-5.08 106.832,-20.12"
         style="fill:#d82b62;fill-opacity:1;fill-rule:nonzero;stroke:none"
         id="path270" /><path
         d="m 582.844,1835.12 h 10 v 20 h -10 z"
         style="fill:#f36241;fill-opacity:1;fill-rule:nonzero;stroke:none"
         id="path272" /><path
         d="m 582.844,1758.58 h 10 v 38.2695 h -10 z m 0,-76.55 h 10 v 38.2695 h -10 z m 0,-76.55 h 10 v 38.2695 h -10 z m 0,-76.55 h 10 v 38.2813 h -10 z"
         style="fill:#f36241;fill-opacity:1;fill-rule:nonzero;stroke:none"
         id="path274" /><path
         d="m 582.844,1490.65 v -25 h 25 v 10 h -15 v 15 h -10"
         style="fill:#f36241;fill-opacity:1;fill-rule:nonzero;stroke:none"
         id="path276" /><path
         d="m 648.992,1465.65 h 41.1563 v 10 H 648.992 Z m 82.313,0 h 41.1563 v 10 H 731.305 Z m 82.312,0 h 41.1563 v 10 H 813.617 Z m 82.313,0 h 41.1563 v 10 H 895.93 Z m 82.312,0 h 41.1563 v 10 H 978.242 Z m 82.308,0 h 41.1602 v 10 H 1060.55 Z m 82.32,0 h 41.1484 v 10 H 1142.87 Z"
         style="fill:#f36241;fill-opacity:1;fill-rule:nonzero;stroke:none"
         id="path278" /><path
         d="m 1225.18,1465.65 h 25 v 25 h -10 v -15 h -15 v -10"
         style="fill:#f36241;fill-opacity:1;fill-rule:nonzero;stroke:none"
         id="path280" /><path
         d="m 1250.18,1568.55 h -10 v -38.9492 h 10 z m 0,77.9 h -10 v -38.9492 h 10 z m 0,77.89 h -10 v -38.9492 h 10 z m 0,77.9 h -10 v -38.9531 h 10 z"
         style="fill:#f36241;fill-opacity:1;fill-rule:nonzero;stroke:none"
         id="path282" /><path
         d="m 1240.18,1841.19 h 10 v 20 h -10 z"
         style="fill:#f36241;fill-opacity:1;fill-rule:nonzero;stroke:none"
         id="path284" /><path
         d="M 2933.75,1880.12 H 1005.28 V 4179.3 H 2933.75 V 1880.12"
         style="fill:#3f436d;fill-opacity:1;fill-rule:nonzero;stroke:none"
         id="path286" /><path
         d="M 2933.75,3999.49 H 1005.28 v 291.81 h 1928.47 v -291.81"
         style="fill:#5c5e94;fill-opacity:1;fill-rule:nonzero;stroke:none"
         id="path288" /><path
         d="m 2710.6,2038.27 v -18.94 l -69.35,-26.37 v 18.21 l 48.52,17.63 -48.52,17.78 v 18.06 l 69.35,-26.37"
         style="fill:#f78f45;fill-opacity:1;fill-rule:nonzero;stroke:none"
         id="path290" /><path
         d="m 2513.43,2064.64 v -18.06 l -48.51,-17.78 48.51,-17.63 v -18.21 l -69.35,26.37 v 18.94 l 69.35,26.37"
         style="fill:#f78f45;fill-opacity:1;fill-rule:nonzero;stroke:none"
         id="path292" /><g
         id="g294"
         transform="scale(10)"><text
           transform="matrix(1,0,0,-1,254.906,198.429)"
           style="font-variant:normal;font-weight:bold;font-size:15.6111px;font-family:Montserrat;-inkscape-font-specification:Montserrat-Bold;writing-mode:lr-tb;fill:#f78f45;fill-opacity:1;fill-rule:nonzero;stroke:none"
           id="text298"><tspan
             x="0"
             y="0"
             id="tspan296">/</tspan></text></g><path
         d="m 1462.25,3813.47 v -23.63 l -86.48,-32.88 v 22.71 l 60.5,21.98 -60.5,22.17 v 22.53 l 86.48,-32.88"
         style="fill:#f78f45;fill-opacity:1;fill-rule:nonzero;stroke:none"
         id="path300" /><path
         d="m 1303.22,3846.35 v -22.53 l -60.51,-22.17 60.51,-21.98 v -22.71 l -86.49,32.88 v 23.63 l 86.49,32.88"
         style="fill:#f78f45;fill-opacity:1;fill-rule:nonzero;stroke:none"
         id="path302" /><g
         id="g304"
         transform="scale(10)"><text
           transform="matrix(1,0,0,-1,112.229,408.354)"
           style="font-variant:normal;font-weight:bold;font-size:13.8438px;font-family:Montserrat;-inkscape-font-specification:Montserrat-Bold;writing-mode:lr-tb;fill:#ffffff;fill-opacity:1;fill-rule:nonzero;stroke:none"
           id="text308"><tspan
             x="0 15.892601 25.181791 35.772297 39.690094 51.125072 60.275467 70.395073 79.684258 87.879555 99.563728 109.55933 114.10009 125.28588"
             y="0"
             sodipodi:role="line"
             id="tspan306">WEB DEVELOPING</tspan></text></g><path
         d="m 1905.55,3512.92 h -566.87 v 103.81 h 566.87 v -103.81"
         style="fill:#37bdcf;fill-opacity:1;fill-rule:nonzero;stroke:none"
         id="path310" /><path
         d="m 2268.86,3512.92 h -283.44 v 103.81 h 283.44 v -103.81"
         style="fill:#f78f45;fill-opacity:1;fill-rule:nonzero;stroke:none"
         id="path312" /><path
         d="m 2724.52,3512.92 h -390.38 v 103.81 h 390.38 v -103.81"
         style="fill:#ffffff;fill-opacity:1;fill-rule:nonzero;stroke:none"
         id="path314" /><path
         d="m 1603.25,3327.58 h -264.57 v 103.81 h 264.57 v -103.81"
         style="fill:#37bdcf;fill-opacity:1;fill-rule:nonzero;stroke:none"
         id="path316" /><path
         d="m 2127.14,3327.58 h -451.9 v 103.81 h 451.9 v -103.81"
         style="fill:#f78f45;fill-opacity:1;fill-rule:nonzero;stroke:none"
         id="path318" /><path
         d="m 2724.52,3327.58 h -523.74 v 103.81 h 523.74 v -103.81"
         style="fill:#ffffff;fill-opacity:1;fill-rule:nonzero;stroke:none"
         id="path320" /><path
         d="m 1686.94,3142.24 h -348.26 v 103.81 h 348.26 v -103.81"
         style="fill:#37bdcf;fill-opacity:1;fill-rule:nonzero;stroke:none"
         id="path322" /><path
         d="m 2398.75,3142.24 h -655.12 v 103.81 h 655.12 v -103.81"
         style="fill:#f78f45;fill-opacity:1;fill-rule:nonzero;stroke:none"
         id="path324" /><path
         d="m 2724.52,3142.24 h -255.57 v 103.81 h 255.57 v -103.81"
         style="fill:#ffffff;fill-opacity:1;fill-rule:nonzero;stroke:none"
         id="path326" /><path
         d="m 1777.83,2956.9 h -439.15 v 103.81 h 439.15 V 2956.9"
         style="fill:#37bdcf;fill-opacity:1;fill-rule:nonzero;stroke:none"
         id="path328" /><path
         d="m 2268.86,2956.9 h -426.24 v 103.81 h 426.24 V 2956.9"
         style="fill:#f78f45;fill-opacity:1;fill-rule:nonzero;stroke:none"
         id="path330" /><path
         d="m 2724.52,2956.9 h -390.38 v 103.81 h 390.38 V 2956.9"
         style="fill:#ffffff;fill-opacity:1;fill-rule:nonzero;stroke:none"
         id="path332" /><path
         d="m 1531.25,2771.56 h -192.57 v 103.81 h 192.57 v -103.81"
         style="fill:#37bdcf;fill-opacity:1;fill-rule:nonzero;stroke:none"
         id="path334" /><path
         d="m 1977.6,2771.56 h -381.55 v 103.81 h 381.55 v -103.81"
         style="fill:#f78f45;fill-opacity:1;fill-rule:nonzero;stroke:none"
         id="path336" /><path
         d="M 2724.52,2771.56 H 2037 v 103.81 h 687.52 v -103.81"
         style="fill:#ffffff;fill-opacity:1;fill-rule:nonzero;stroke:none"
         id="path338" /><path
         d="m 1889.41,2586.22 h -550.73 v 103.81 h 550.73 v -103.81"
         style="fill:#37bdcf;fill-opacity:1;fill-rule:nonzero;stroke:none"
         id="path340" /><path
         d="m 2127.14,2586.22 h -169.33 v 103.81 h 169.33 v -103.81"
         style="fill:#f78f45;fill-opacity:1;fill-rule:nonzero;stroke:none"
         id="path342" /><path
         d="m 2724.52,2586.22 h -523.74 v 103.81 h 523.74 v -103.81"
         style="fill:#ffffff;fill-opacity:1;fill-rule:nonzero;stroke:none"
         id="path344" /><path
         d="m 2055.74,2400.87 h -717.06 v 103.82 h 717.06 v -103.82"
         style="fill:#37bdcf;fill-opacity:1;fill-rule:nonzero;stroke:none"
         id="path346" /><path
         d="m 2409.55,2400.87 h -293.36 v 103.82 h 293.36 v -103.82"
         style="fill:#f78f45;fill-opacity:1;fill-rule:nonzero;stroke:none"
         id="path348" /><path
         d="m 2724.52,2400.87 h -255.57 v 103.82 h 255.57 v -103.82"
         style="fill:#ffffff;fill-opacity:1;fill-rule:nonzero;stroke:none"
         id="path350" /><path
         d="m 1558.25,2215.54 h -219.57 v 103.81 h 219.57 v -103.81"
         style="fill:#37bdcf;fill-opacity:1;fill-rule:nonzero;stroke:none"
         id="path352" /><path
         d="m 1889.41,2215.54 h -267.3 v 103.81 h 267.3 v -103.81"
         style="fill:#f78f45;fill-opacity:1;fill-rule:nonzero;stroke:none"
         id="path354" /><path
         d="m 2724.52,2215.54 h -766.71 v 103.81 h 766.71 v -103.81"
         style="fill:#ffffff;fill-opacity:1;fill-rule:nonzero;stroke:none"
         id="path356" /><path
         d="m 2821.44,2215.54 h -21.12 v 1401.19 h 21.12 V 2215.54"
         style="fill:#ffffff;fill-opacity:1;fill-rule:nonzero;stroke:none"
         id="path358" /><path
         d="m 1212.32,3564.82 c 0,-28.66 -23.24,-51.9 -51.9,-51.9 -28.67,0 -51.91,23.24 -51.91,51.9 0,28.67 23.24,51.91 51.91,51.91 28.66,0 51.9,-23.24 51.9,-51.91"
         style="fill:#ffffff;fill-opacity:1;fill-rule:nonzero;stroke:none"
         id="path360" /><path
         d="m 1212.32,3379.49 c 0,-28.67 -23.24,-51.91 -51.9,-51.91 -28.67,0 -51.91,23.24 -51.91,51.91 0,28.66 23.24,51.9 51.91,51.9 28.66,0 51.9,-23.24 51.9,-51.9"
         style="fill:#ffffff;fill-opacity:1;fill-rule:nonzero;stroke:none"
         id="path362" /><path
         d="m 1212.32,3194.14 c 0,-28.66 -23.24,-51.9 -51.9,-51.9 -28.67,0 -51.91,23.24 -51.91,51.9 0,28.67 23.24,51.91 51.91,51.91 28.66,0 51.9,-23.24 51.9,-51.91"
         style="fill:#ffffff;fill-opacity:1;fill-rule:nonzero;stroke:none"
         id="path364" /><path
         d="m 1212.32,3008.8 c 0,-28.66 -23.24,-51.9 -51.9,-51.9 -28.67,0 -51.91,23.24 -51.91,51.9 0,28.68 23.24,51.91 51.91,51.91 28.66,0 51.9,-23.23 51.9,-51.91"
         style="fill:#ffffff;fill-opacity:1;fill-rule:nonzero;stroke:none"
         id="path366" /><path
         d="m 1212.32,2823.47 c 0,-28.67 -23.24,-51.91 -51.9,-51.91 -28.67,0 -51.91,23.24 -51.91,51.91 0,28.66 23.24,51.9 51.91,51.9 28.66,0 51.9,-23.24 51.9,-51.9"
         style="fill:#ffffff;fill-opacity:1;fill-rule:nonzero;stroke:none"
         id="path368" /><path
         d="m 1212.32,2638.12 c 0,-28.66 -23.24,-51.9 -51.9,-51.9 -28.67,0 -51.91,23.24 -51.91,51.9 0,28.67 23.24,51.91 51.91,51.91 28.66,0 51.9,-23.24 51.9,-51.91"
         style="fill:#ffffff;fill-opacity:1;fill-rule:nonzero;stroke:none"
         id="path370" /><path
         d="m 1212.32,2452.79 c 0,-28.67 -23.24,-51.92 -51.9,-51.92 -28.67,0 -51.91,23.25 -51.91,51.92 0,28.66 23.24,51.9 51.91,51.9 28.66,0 51.9,-23.24 51.9,-51.9"
         style="fill:#ffffff;fill-opacity:1;fill-rule:nonzero;stroke:none"
         id="path372" /><path
         d="m 1212.32,2267.45 c 0,-28.68 -23.24,-51.91 -51.9,-51.91 -28.67,0 -51.91,23.23 -51.91,51.91 0,28.66 23.24,51.9 51.91,51.9 28.66,0 51.9,-23.24 51.9,-51.9"
         style="fill:#ffffff;fill-opacity:1;fill-rule:nonzero;stroke:none"
         id="path374" /><path
         d="m 2847.86,4129.3 c 0,-29.24 -23.7,-52.94 -52.94,-52.94 -29.25,0 -52.95,23.7 -52.95,52.94 0,29.24 23.7,52.94 52.95,52.94 29.24,0 52.94,-23.7 52.94,-52.94"
         style="fill:#d82b62;fill-opacity:1;fill-rule:nonzero;stroke:none"
         id="path376" /><path
         d="m 2716.99,4130.37 c 0,-29.47 -23.88,-53.35 -53.34,-53.35 -29.47,0 -53.35,23.88 -53.35,53.35 0,29.45 23.88,53.34 53.35,53.34 29.46,0 53.34,-23.89 53.34,-53.34"
         style="fill:#ffffff;fill-opacity:1;fill-rule:nonzero;stroke:none"
         id="path378" /><path
         d="m 3377.24,3856.61 h -186.82 v 52.34 h 186.82 v -52.34"
         style="fill:#3c5282;fill-opacity:1;fill-rule:nonzero;stroke:none"
         id="path380" /><path
         d="m 3761.95,3949.8 h -571.53 v 52.34 h 571.53 v -52.34"
         style="fill:#5c5e94;fill-opacity:1;fill-rule:nonzero;stroke:none"
         id="path382" /><path
         d="m 3515.62,3826.64 h 10 v 20 h -10 z"
         style="fill:#f36241;fill-opacity:1;fill-rule:nonzero;stroke:none"
         id="path384" /><path
         d="m 3515.62,3759.12 h 10 v 33.7578 h -10 z m 0,-67.53 h 10 v 33.7695 h -10 z"
         style="fill:#f36241;fill-opacity:1;fill-rule:nonzero;stroke:none"
         id="path386" /><path
         d="m 3515.62,3657.83 v -25 h 25 v 10 h -15 v 15 h -10"
         style="fill:#f36241;fill-opacity:1;fill-rule:nonzero;stroke:none"
         id="path388" /><path
         d="m 3578.71,3632.83 h 38.0898 v 10 H 3578.71 Z m 76.18,0 h 38.0898 v 10 H 3654.89 Z m 76.18,0 h 38.1016 v 10 H 3731.07 Z m 76.19,0 h 38.0898 v 10 H 3807.26 Z m 76.18,0 h 38.0898 v 10 H 3883.44 Z m 76.18,0 h 38.0898 v 10 H 3959.62 Z m 76.18,0 h 38.0898 v 10 H 4035.8 Z m 76.18,0 h 38.0898 v 10 H 4111.98 Z"
         style="fill:#f36241;fill-opacity:1;fill-rule:nonzero;stroke:none"
         id="path390" /><path
         d="m 4188.16,3632.83 h 25 v 25 h -10 v -15 h -15 v -10"
         style="fill:#f36241;fill-opacity:1;fill-rule:nonzero;stroke:none"
         id="path392" /><path
         d="m 4203.16,3698.4 h 10 v 40.5703 h -10 z"
         style="fill:#f36241;fill-opacity:1;fill-rule:nonzero;stroke:none"
         id="path394" /><path
         d="m 4203.16,3779.54 h 10 v 20 h -10 z"
         style="fill:#f36241;fill-opacity:1;fill-rule:nonzero;stroke:none"
         id="path396" /><g
         id="g398"
         transform="scale(10)"><text
           transform="matrix(1,0,0,-1,319.042,414.037)"
           style="font-variant:normal;font-weight:900;font-size:18.4267px;font-family:Montserrat;-inkscape-font-specification:Montserrat-Black;writing-mode:lr-tb;fill:#ffffff;fill-opacity:1;fill-rule:nonzero;stroke:none"
           id="text402"><tspan
             x="0 13.524382 25.630724"
             y="0"
             sodipodi:role="line"
             id="tspan400">CSS</tspan></text></g><path
         d="m 4252.77,3868.56 c -55.15,-24.56 -120.01,0.28 -144.57,55.43 -2.01,4.51 -3.67,9.09 -5.06,13.73 -8.53,28.86 -4.44,59.31 9.64,84.35 l 0.35,0.7 c 11.1,19.56 28.31,35.93 50.43,45.78 4.16,1.81 8.32,3.4 12.62,4.65 l 1.32,0.42 c 21.92,6.45 44.61,5.61 65.28,-1.25 l 0.21,-0.07 c 17.68,-5.97 33.86,-16.44 46.61,-30.6 7.5,-8.25 13.74,-17.82 18.53,-28.57 2.98,-6.66 5.2,-13.46 6.79,-20.26 4.24,-18.59 3.4,-37.53 -1.79,-55.15 -8.68,-29.76 -29.91,-55.56 -60.36,-69.16 z m 106.9,144.15 c -1.95,6.8 -4.45,13.52 -7.36,20.12 -8.32,18.59 -19.77,34.82 -33.5,48.28 -13.04,12.76 -28.17,23.1 -44.46,30.59 l -0.91,0.41 c -23.03,10.48 -48.42,15.41 -74.08,14.02 -17.55,-0.97 -35.25,-4.93 -52.31,-12.07 -1.03,-0.49 -2.15,-0.9 -3.19,-1.39 -30.59,-13.67 -54.73,-35.87 -70.75,-62.64 -19.98,-33.15 -27.54,-73.18 -19.71,-112.31 2.23,-11.3 5.76,-22.47 10.61,-33.43 35.45,-79.5 128.96,-115.3 208.39,-79.85 48.49,21.65 80.74,64.79 90.46,113.28 4.92,24.35 4.09,50.02 -3.19,74.99"
         style="fill:#5c5e94;fill-opacity:1;fill-rule:nonzero;stroke:none"
         id="path404" /><path
         d="m 4362.86,3937.72 h -49.73 c 5.19,17.62 6.03,36.56 1.79,55.15 -1.59,6.8 -3.81,13.6 -6.79,20.26 -4.79,10.75 -11.03,20.32 -18.53,28.57 -12.75,14.16 -28.93,24.63 -46.61,30.6 l -0.21,0.07 c -20.67,6.86 -43.36,7.7 -65.28,1.25 l -1.32,-0.42 c -4.3,-1.25 -8.46,-2.84 -12.62,-4.65 -22.12,-9.85 -39.33,-26.22 -50.43,-45.78 l -0.35,-0.7 c -14.08,-25.04 -18.17,-55.49 -9.64,-84.35 h -49.74 c -7.83,39.13 -0.27,79.16 19.71,112.31 16.02,26.77 40.16,48.97 70.75,62.64 1.04,0.49 2.16,0.9 3.19,1.39 17.06,7.14 34.76,11.1 52.31,12.07 25.66,1.39 51.05,-3.54 74.08,-14.02 l 0.91,-0.41 c 16.29,-7.49 31.42,-17.83 44.46,-30.59 13.73,-13.46 25.18,-29.69 33.5,-48.28 2.91,-6.6 5.41,-13.32 7.36,-20.12 7.28,-24.97 8.11,-50.64 3.19,-74.99"
         style="fill:#d82b62;fill-opacity:1;fill-rule:nonzero;stroke:none"
         id="path406" /><path
         d="m 3761.95,3856.61 h -347.27 v 52.34 h 347.27 v -52.34"
         style="fill:#5c5e94;fill-opacity:1;fill-rule:nonzero;stroke:none"
         id="path408" /><g
         id="g410"
         transform="scale(10)"><text
           transform="matrix(1,0,0,-1,48.6605,406.856)"
           style="font-variant:normal;font-weight:900;font-size:26.4103px;font-family:Montserrat;-inkscape-font-specification:Montserrat-Black;writing-mode:lr-tb;fill:#262a41;fill-opacity:1;fill-rule:nonzero;stroke:none"
           id="text414"><tspan
             x="0 11.567712 19.490801"
             y="0"
             sodipodi:role="line"
             id="tspan412">{ }</tspan></text></g><path
         d="M 690.535,3674.79 H 485.141 v 98.02 h 205.394 v -98.02"
         style="fill:#ffffff;fill-opacity:1;fill-rule:nonzero;stroke:none"
         id="path416" /><path
         d="M 690.535,3503.55 H 485.141 v 98.02 h 205.394 v -98.02"
         style="fill:#ffffff;fill-opacity:1;fill-rule:nonzero;stroke:none"
         id="path418" /><path
         d="M 690.535,3332.3 H 485.141 v 98.02 h 205.394 v -98.02"
         style="fill:#f78f45;fill-opacity:1;fill-rule:nonzero;stroke:none"
         id="path420" /><path
         d="M 690.535,3161.05 H 485.141 v 98.02 h 205.394 v -98.02"
         style="fill:#f78f45;fill-opacity:1;fill-rule:nonzero;stroke:none"
         id="path422" /><path
         d="M 690.535,2989.8 H 485.141 v 98.02 h 205.394 v -98.02"
         style="fill:#f78f45;fill-opacity:1;fill-rule:nonzero;stroke:none"
         id="path424" /><path
         d="M 690.535,2818.55 H 485.141 v 98.02 h 205.394 v -98.02"
         style="fill:#f78f45;fill-opacity:1;fill-rule:nonzero;stroke:none"
         id="path426" /><path
         d="M 690.535,2647.31 H 485.141 v 98.02 h 205.394 v -98.02"
         style="fill:#f78f45;fill-opacity:1;fill-rule:nonzero;stroke:none"
         id="path428" /><path
         d="m 6347.45,1776.86 c -38.98,0 -70.57,31.59 -70.57,70.58 0,38.97 31.59,70.56 70.57,70.56 38.98,0 70.57,-31.59 70.57,-70.56 0,-38.99 -31.59,-70.58 -70.57,-70.58 z m 147.46,68.53 0.09,2.05 -0.09,1.95 c 10.24,4.72 20.56,10.15 30.71,16.73 10.85,7.48 21.89,16.11 32.12,25.99 l -2.22,8.72 c -2.14,9.88 -5.96,19.4 -9.44,28.92 -1.96,4.63 -4.26,9.17 -6.49,13.71 -2.05,4.72 -4.54,9.07 -7.3,13.35 l -4.62,7.66 c -13.98,-0.1 -28.13,-1.88 -41.04,-4.28 -11.65,-2.4 -22.95,-5.87 -33.46,-9.87 l -2.85,2.84 c 3.92,10.59 7.48,21.81 9.8,33.47 2.49,12.9 4.26,27.05 4.35,41.02 l -7.64,4.63 c -4.28,2.75 -8.72,5.24 -13.35,7.29 -4.54,2.23 -9.09,4.55 -13.8,6.5 -9.52,3.48 -18.96,7.3 -28.83,9.43 l -8.72,2.23 c -9.88,-10.24 -18.52,-21.18 -26,-32.13 -6.58,-10.06 -12.01,-20.38 -16.73,-30.7 l -1.95,0.17 -2.05,-0.17 c -4.63,10.32 -10.15,20.64 -16.73,30.7 -7.38,10.95 -16.1,21.89 -25.9,32.13 l -8.72,-2.23 c -9.97,-2.13 -19.4,-5.95 -28.92,-9.43 -4.63,-1.95 -9.17,-4.27 -13.8,-6.5 -4.62,-2.05 -8.99,-4.54 -13.35,-7.29 l -7.65,-4.63 c 0.18,-13.97 1.96,-28.12 4.37,-41.02 2.39,-11.66 5.87,-22.88 9.87,-33.47 -0.98,-0.98 -1.96,-1.87 -2.84,-2.84 -10.6,4 -21.81,7.47 -33.47,9.87 -12.9,2.4 -27.15,4.18 -41.02,4.28 l -4.72,-7.66 c -2.68,-4.28 -5.17,-8.63 -7.3,-13.35 -2.13,-4.54 -4.45,-9.08 -6.41,-13.71 -3.56,-9.52 -7.3,-19.04 -9.43,-28.92 l -2.22,-8.72 c 10.23,-9.88 21.18,-18.51 32.12,-25.99 10.06,-6.58 20.38,-12.01 30.61,-16.73 l -0.09,-1.95 0.09,-2.05 c -10.23,-4.63 -20.55,-10.15 -30.61,-16.73 -10.94,-7.39 -21.89,-16.11 -32.12,-25.9 l 2.22,-8.72 c 2.13,-9.89 5.87,-19.41 9.43,-28.93 1.96,-4.63 4.28,-9.16 6.41,-13.79 2.13,-4.63 4.62,-8.99 7.3,-13.26 l 4.72,-7.66 c 13.87,0.09 28.12,1.88 41.02,4.28 11.66,2.4 22.87,5.87 33.47,9.88 0.88,-0.98 1.86,-1.96 2.84,-2.86 -4,-10.58 -7.48,-21.79 -9.87,-33.45 -2.41,-12.9 -4.19,-27.14 -4.37,-41.03 l 7.65,-4.72 c 4.36,-2.66 8.73,-5.16 13.35,-7.2 4.63,-2.23 9.17,-4.54 13.8,-6.51 9.52,-3.55 18.95,-7.29 28.92,-9.42 l 8.72,-2.23 c 9.8,10.24 18.52,21.18 25.9,32.13 6.58,10.05 12.1,20.38 16.73,30.7 l 2.05,-0.18 1.95,0.18 c 4.72,-10.32 10.15,-20.65 16.73,-30.7 7.48,-10.95 16.12,-21.89 26,-32.13 l 8.72,2.23 c 9.87,2.13 19.31,5.87 28.83,9.42 4.71,1.97 9.26,4.28 13.8,6.51 4.63,2.04 9.07,4.54 13.35,7.2 l 7.64,4.72 c -0.09,13.89 -1.86,28.13 -4.35,41.03 -2.32,11.66 -5.88,22.87 -9.8,33.45 0.99,0.9 1.88,1.88 2.85,2.86 10.51,-4.01 21.81,-7.48 33.46,-9.88 12.91,-2.4 27.06,-4.19 41.04,-4.28 l 4.62,7.66 c 2.76,4.27 5.25,8.63 7.3,13.26 2.23,4.63 4.53,9.16 6.49,13.79 3.48,9.52 7.3,19.04 9.44,28.93 l 2.22,8.72 c -10.23,9.79 -21.27,18.51 -32.12,25.9 -10.15,6.58 -20.47,12.1 -30.71,16.73"
         style="fill:#262a41;fill-opacity:1;fill-rule:nonzero;stroke:none"
         id="path430" /><path
         d="m 5846.39,1687.8 h -93.18 v 419.68 h 93.18 V 1687.8"
         style="fill:#d82b62;fill-opacity:1;fill-rule:nonzero;stroke:none"
         id="path432" /><path
         d="m 5715.64,1687.8 h -99.88 v 234.76 h 99.88 V 1687.8"
         style="fill:#5c5e94;fill-opacity:1;fill-rule:nonzero;stroke:none"
         id="path434" /><path
         d="m 5577.29,1687.8 h -99.89 v 159.64 h 99.89 V 1687.8"
         style="fill:#f36241;fill-opacity:1;fill-rule:nonzero;stroke:none"
         id="path436" /><path
         d="m 5439.74,1749.65 h 20 v 10 h -20 z"
         style="fill:#f36241;fill-opacity:1;fill-rule:nonzero;stroke:none"
         id="path438" /><path
         d="m 5338.31,1749.65 h 50.7109 v 10 H 5338.31 Z"
         style="fill:#f36241;fill-opacity:1;fill-rule:nonzero;stroke:none"
         id="path440" /><path
         d="m 5287.61,1759.65 h -25 v -25 h 10 v 15 h 15 v 10"
         style="fill:#f36241;fill-opacity:1;fill-rule:nonzero;stroke:none"
         id="path442" /><path
         d="m 5262.61,1659.84 h 10 v 37.4023 h -10 z m 0,-74.81 h 10 v 37.3984 h -10 z m 0,-74.81 h 10 v 37.4023 h -10 z m 0,-74.81 h 10 v 37.3984 h -10 z"
         style="fill:#f36241;fill-opacity:1;fill-rule:nonzero;stroke:none"
         id="path444" /><path
         d="m 5262.61,1398 v -25 h 25 v 10 h -15 v 15 h -10"
         style="fill:#f36241;fill-opacity:1;fill-rule:nonzero;stroke:none"
         id="path446" /><path
         d="m 5321.56,1373 h 33.9609 v 10 H 5321.56 Z m 67.92,0 h 33.9609 v 10 H 5389.48 Z"
         style="fill:#f36241;fill-opacity:1;fill-rule:nonzero;stroke:none"
         id="path448" /><path
         d="m 5457.39,1373 h 20 v 10 h -20 z"
         style="fill:#f36241;fill-opacity:1;fill-rule:nonzero;stroke:none"
         id="path450" /><path
         d="m 5773.33,1349.42 h -264.3 v 47.23 h 264.3 v -47.23"
         style="fill:#ffffff;fill-opacity:1;fill-rule:nonzero;stroke:none"
         id="path452" /><path
         d="m 5691.84,1262.03 h -182.81 v 47.23 h 182.81 v -47.23"
         style="fill:#ffffff;fill-opacity:1;fill-rule:nonzero;stroke:none"
         id="path454" /><path
         d="m 5740.42,1174.63 h -231.39 v 47.24 h 231.39 v -47.24"
         style="fill:#ffffff;fill-opacity:1;fill-rule:nonzero;stroke:none"
         id="path456" /><path
         d="m 5842.3,1174.63 h -54.01 v 47.24 h 54.01 v -47.24"
         style="fill:#f78f45;fill-opacity:1;fill-rule:nonzero;stroke:none"
         id="path458" /><path
         d="m 6090.57,1174.63 h -198.74 v 47.24 h 198.74 v -47.24"
         style="fill:#f78f45;fill-opacity:1;fill-rule:nonzero;stroke:none"
         id="path460" /><path
         d="m 6090.57,1262.03 h -340.15 v 47.23 h 340.15 v -47.23"
         style="fill:#f78f45;fill-opacity:1;fill-rule:nonzero;stroke:none"
         id="path462" /><path
         d="m 6090.57,1349.42 h -264.3 v 47.23 h 264.3 v -47.23"
         style="fill:#f78f45;fill-opacity:1;fill-rule:nonzero;stroke:none"
         id="path464" /><path
         d="m 6996.92,1789.94 h -174.14 v 83.1 h 174.14 v -83.1"
         style="fill:#d82b62;fill-opacity:1;fill-rule:nonzero;stroke:none"
         id="path466" /><path
         d="m 6996.92,1644.74 h -174.14 v 83.11 h 174.14 v -83.11"
         style="fill:#d82b62;fill-opacity:1;fill-rule:nonzero;stroke:none"
         id="path468" /><path
         d="m 6996.92,1499.55 h -174.14 v 83.1 h 174.14 v -83.1"
         style="fill:#d82b62;fill-opacity:1;fill-rule:nonzero;stroke:none"
         id="path470" /><path
         d="m 6996.92,1354.36 h -174.14 v 83.11 h 174.14 v -83.11"
         style="fill:#d82b62;fill-opacity:1;fill-rule:nonzero;stroke:none"
         id="path472" /><path
         d="m 6996.92,1209.16 h -174.14 v 83.11 h 174.14 v -83.11"
         style="fill:#ffffff;fill-opacity:1;fill-rule:nonzero;stroke:none"
         id="path474" /><path
         d="m 6996.92,1063.97 h -174.14 v 83.1 h 174.14 v -83.1"
         style="fill:#ffffff;fill-opacity:1;fill-rule:nonzero;stroke:none"
         id="path476" /><path
         d="m 6996.92,918.781 h -174.14 v 83.109 h 174.14 v -83.109"
         style="fill:#ffffff;fill-opacity:1;fill-rule:nonzero;stroke:none"
         id="path478" /><path
         d="m 6237.66,680.641 c -65.09,-4.903 -119.57,10.57 -165.09,38.82 -183.71,113.68 -222.03,434.289 -224.68,458.379 1.61,-7.4 19.72,-46.6 210.66,-175.05 15.89,-10.72 30.44,-21.591 43.72,-32.591 l 0.7,-0.527 c 166.39,-137.801 134.69,-289.031 134.69,-289.031"
         style="fill:#098b73;fill-opacity:1;fill-rule:nonzero;stroke:none"
         id="path480" /><path
         d="m 5843.12,1177.37 c 0.06,-0.14 43.01,-105.55 109.91,-216.71 33.46,-55.578 72.89,-112.601 116.1,-158.691 43.22,-46.059 90.2,-81.348 139.33,-92.84 l 2.26,9.742 c -46.01,10.66 -91.84,44.598 -134.3,89.938 -63.73,67.953 -119.87,161.132 -159.93,237.251 -20.04,38.05 -36.08,71.85 -47.1,96.12 -5.51,12.14 -9.77,21.89 -12.64,28.6 -2.88,6.71 -4.36,10.35 -4.37,10.36 l -9.26,-3.77"
         style="fill:#0b7259;fill-opacity:1;fill-rule:nonzero;stroke:none"
         id="path482" /><path
         d="m 6214.09,679.742 c -54.81,0 -101.61,14.938 -141.52,39.719 7.54,17.848 13.23,39 17.52,61.34 37.3,-35.539 77.07,-62.02 118.37,-71.672 l 2.26,9.742 c -40.36,9.348 -80.57,36.609 -118.5,73.758 13.99,83.32 10.05,177.57 10.05,177.57 l 0.7,-0.527 c 17.2,-14.25 32.29,-28.633 45.51,-42.992 2.23,-37.36 9.63,-69.899 20.15,-97.981 h 0.04 v 0 0 c 18.01,-48.058 45.15,-83.039 71.18,-106.699 0.15,-3.602 0.22,-6.988 0.22,-10.18 0.01,-19.629 -2.41,-31.179 -2.41,-31.179 -8.02,-0.61 -15.88,-0.899 -23.57,-0.899"
         style="fill:#0a7e66;fill-opacity:1;fill-rule:nonzero;stroke:none"
         id="path484" /><path
         d="m 6208.46,709.129 c -41.3,9.652 -81.07,36.133 -118.37,71.672 0.75,3.91 1.46,7.859 2.13,11.828 37.93,-37.149 78.14,-64.41 118.5,-73.758 l -2.26,-9.742"
         style="fill:#0b7259;fill-opacity:1;fill-rule:nonzero;stroke:none"
         id="path486" /><path
         d="m 6725.25,1154.41 c -0.72,-4.48 -3.29,-20.03 -8.42,-42.92 v -0.08 c -27.1,-121.379 -124.93,-447.969 -388.12,-415.23 0,0 -4.44,28.019 4.44,69.949 13.02,61.652 54.87,153.422 182.17,230.383 188.92,114.248 208.02,150.928 209.93,157.898"
         style="fill:#098b73;fill-opacity:1;fill-rule:nonzero;stroke:none"
         id="path488" /><path
         d="m 6712.17,1130.28 c 0,0 -0.51,-1.31 -1.54,-3.87 -7.76,-19.14 -44.69,-106.5 -106.91,-197.172 C 6541.53,838.52 6454,744.75 6345.99,711.941 l 2.92,-9.57 c 119.1,36.371 211.89,142.649 275.28,239.469 63.36,96.88 97.23,184.64 97.31,184.84 l -9.33,3.6"
         style="fill:#0b7259;fill-opacity:1;fill-rule:nonzero;stroke:none"
         id="path490" /><path
         d="m 6364.96,693.879 c -11.73,0 -23.78,0.75 -36.25,2.301 0,0 -0.66,4.16 -0.96,11.672 11.01,19.918 21.25,39.449 30.7,58.519 99.08,7.199 185.61,87.027 248.83,168.098 -1.17,-1.739 -2.36,-3.477 -3.56,-5.231 C 6541.53,838.52 6454,744.75 6345.99,711.941 l 2.92,-9.57 c 119.1,36.371 211.89,142.649 275.28,239.469 35.45,54.199 61.66,105.54 77.89,140.29 9.64,18.25 14.75,29.36 14.75,29.36 v -0.08 C 6691.01,995.781 6600.97,693.879 6364.96,693.879"
         style="fill:#0a7e66;fill-opacity:1;fill-rule:nonzero;stroke:none"
         id="path492" /><path
         d="m 6348.91,702.371 -2.92,9.57 c 108.01,32.809 195.54,126.579 257.73,217.297 1.2,1.754 2.39,3.492 3.56,5.231 44.29,56.801 77.14,114.211 94.8,147.661 -16.23,-34.75 -42.44,-86.091 -77.89,-140.29 -63.39,-96.82 -156.18,-203.098 -275.28,-239.469"
         style="fill:#0b7259;fill-opacity:1;fill-rule:nonzero;stroke:none"
         id="path494" /><path
         d="m 6314.58,684.512 c -6.5,-11.301 -102.61,28.629 -145.91,144.187 h -0.04 c -26,69.41 -32.93,166.121 10.03,295.351 112.87,339.37 66.35,403.36 64.97,405.15 2.27,-1.07 100.35,-49.77 163.61,-168.27 l 0.26,-0.46 c 69.57,-130.71 96.72,-346.12 -92.92,-675.958"
         style="fill:#02a987;fill-opacity:1;fill-rule:nonzero;stroke:none"
         id="path496" /><path
         d="m 6239.67,1526.14 0.25,-0.33 c 5.63,-7.34 102.52,-136.84 102.52,-378.94 0,-47.58 -3.74,-99.53 -12.66,-155.768 -24.58,-154.961 -31.52,-232.911 -31.53,-272.071 0.02,-15.672 1.08,-25.133 2.81,-31.261 0.89,-3.071 1.92,-5.372 3.5,-7.25 1.52,-1.872 4.06,-3.2 6.41,-3.141 2.82,0.062 4.58,1.312 5.71,2.18 1.13,0.929 1.73,1.73 1.88,1.929 l -7.96,6.043 1.73,-1.32 -1.68,1.391 -0.05,-0.071 1.73,-1.32 -1.68,1.391 -0.34,-0.321 0.01,-0.011 0.65,-1.579 v 1.688 l -0.65,-0.109 0.65,-1.579 v 1.688 -2.117 l 0.95,1.898 -0.95,0.219 v -2.117 l 0.95,1.898 -0.63,-1.262 0.86,1.122 -0.23,0.14 -0.63,-1.262 0.86,1.122 -0.19,-0.231 0.23,0.199 -0.04,0.032 -0.19,-0.231 0.23,0.199 c -0.17,0.071 -1.52,2.25 -2.38,7.352 -0.91,5.101 -1.56,13.019 -1.56,24.691 -0.01,38.051 6.85,115.809 31.4,270.5 9.01,56.759 12.79,109.229 12.79,157.339 0.01,252.75 -104.47,384.9 -104.94,385.48 l -7.83,-6.21"
         style="fill:#098b73;fill-opacity:1;fill-rule:nonzero;stroke:none"
         id="path498" /><path
         d="m 6302.56,683.68 c -13.9,3.422 -37.79,15.679 -62.71,38.32 -26.03,23.66 -53.17,58.641 -71.18,106.699 13.12,-3.73 25.54,-5.5 37.25,-5.5 46.15,0 81.72,27.332 109.14,69.672 -12.78,-91.691 -16.8,-144.019 -16.81,-173.84 0.02,-15.672 1.08,-25.133 2.81,-31.261 0.44,-1.54 0.93,-2.891 1.5,-4.09 m 12.02,0.832 -2.76,2.09 v 0 l 0.51,-0.391 -0.49,0.41 0.13,0.168 0.22,0.199 v 0 l -0.04,0.032 -0.01,0.011 c -0.28,0.289 -1.52,2.5 -2.33,7.309 -0.91,5.101 -1.56,13.019 -1.56,24.691 -0.01,31.457 4.68,90.059 20.18,196.828 80.63,153.801 78.81,445.071 78.81,445.071 l 0.26,-0.46 c 30.16,-56.67 52.35,-129.27 52.36,-220.22 0,-100.93 -27.32,-224.441 -101.41,-373.879 -9.45,-19.07 -19.69,-38.601 -30.7,-58.519 -4.27,-7.723 -8.66,-15.493 -13.17,-23.34 v 0"
         style="fill:#049c7f;fill-opacity:1;fill-rule:nonzero;stroke:none"
         id="path500" /><path
         d="m 6309.55,682.672 c -1.89,0 -4.25,0.328 -6.99,1.008 v 0 c -0.57,1.199 -1.06,2.55 -1.5,4.09 -1.73,6.128 -2.79,15.589 -2.81,31.261 0.01,29.821 4.03,82.149 16.81,173.84 4.69,7.25 9.14,14.93 13.37,22.988 -15.5,-106.769 -20.19,-165.371 -20.18,-196.828 0,-11.672 0.65,-19.59 1.56,-24.691 0.81,-4.809 2.05,-7.02 2.33,-7.309 l 0.01,-0.011 0.04,-0.032 v 0 l -0.22,-0.199 -0.13,-0.168 0.49,-0.41 -0.51,0.391 v 0 l 2.76,-2.09 c -0.7,-1.223 -2.44,-1.84 -5.03,-1.84 m 1.42,4.578 v 0 0 0 m 0,0.09 v 0 0.039 -0.039"
         style="fill:#098b73;fill-opacity:1;fill-rule:nonzero;stroke:none"
         id="path502" /><path
         d="m 5847.73,1179.25 0.12,-1.18 -0.12,1.18"
         style="fill:#098b73;fill-opacity:1;fill-rule:nonzero;stroke:none"
         id="path504" /><path
         d="m 6500.85,689.559 v -271.27 c 0,-79.367 -64.33,-143.699 -143.69,-143.699 h -127.58 c -51.95,0 -97.48,27.57 -122.7,68.922 h -0.04 c -13.3,21.789 -20.95,47.398 -20.95,74.777 v 271.27 h 414.96"
         style="fill:#f78f45;fill-opacity:1;fill-rule:nonzero;stroke:none"
         id="path506" /><path
         d="m 6515.93,724.75 h -445.11 c -5.85,0 -10.59,-4.75 -10.59,-10.602 v -14 c 0,-5.847 4.74,-10.589 10.59,-10.589 h 445.11 c 5.85,0 10.59,4.73 10.59,10.589 v 14 c 0,5.852 -4.74,10.602 -10.59,10.602"
         style="fill:#f78f45;fill-opacity:1;fill-rule:nonzero;stroke:none"
         id="path508" /><path
         d="m 6500.85,689.559 v -271.27 c 0,-79.367 -64.33,-143.699 -143.69,-143.699 h -127.58 c -51.95,0 -97.48,27.57 -122.7,68.922 303.92,-95.453 369.93,128.039 358.17,216.668 -11.71,88.629 -121.22,129.379 -121.22,129.379 h 157.02"
         style="fill:#f57819;fill-opacity:1;fill-rule:nonzero;stroke:none"
         id="path510" /></g></g></svg>
